<svg xmlns="http://www.w3.org/2000/svg" width="255" height="213.5">
  <path fill="#C63" d="M192.482 61.725s30.017 7.936 41.017 21.603-20.508 37.143-20.508 37.143l-13.492-11.144s10.666-17.227-2.667-15.947-4.35-31.655-4.35-31.655z"/>
  <path fill="#C63" d="M116.027 132.707s-7.686-21.216 16.229-57.156c11.588-17.418 11.096-34.578 11.096-34.578s-.631-30.534 24.905-30.147c25.536.388 22.896 37.179 22.896 37.179s2.903 59.608 26.708 74.123-101.834 10.579-101.834 10.579z"/>
  <path fill="#994D26" d="M173.316 53.608c1.408 4.989-3.718 9.385-8.304 9.385-4.585 0-9.681-4.388-8.303-9.385 1.468-5.324 3.718-9.385 8.303-9.385 4.587.001 6.367 2.521 8.304 9.385z"/>
  <path fill="#903" d="M173.348 50.671c1.408 4.989-3.718 9.385-8.304 9.385-4.585 0-9.681-4.388-8.303-9.385 1.468-5.324 3.718-9.385 8.303-9.385 4.586.001 6.366 2.521 8.304 9.385z"/>
  <path fill="#730026" d="M159.654 44.079c.303 2.001 1.615 4.805 4.72 8.749 1.753-1.096 5.564-5.593 6.03-9.142-1.295-1.683-2.933-2.399-5.36-2.399-2.334 0-4.061 1.056-5.39 2.792z"/>
  <path fill="#BF9900" d="M164.374 37.369s-10.791 0 0 13.708c3-1.874 12.042-13.711 0-13.708z"/>
  <path fill="#FC0" d="M164.374 37.369s-9.625-.5 0 11.375c3-1.875 11-11.375 0-11.375z"/>
  <path fill="#987315" d="M166.791 39.994s-1.083-.25-.625 1.667c.599-.432 1.317-1.276.625-1.667z"/>
  <path fill="#994D26" d="M146.562 35.588c0 3.814 2.844 6.073 6.848 6.073s7.652-4.415 7.652-8.229-1.621-5.938-5.625-5.938-8.875 4.279-8.875 8.094zm39.269.875c0 3.814-2.844 6.073-6.848 6.073s-7.652-4.415-7.652-8.229 1.621-5.938 5.625-5.938 8.875 4.279 8.875 8.094z"/>
  <path fill="#987315" d="M163.198 39.966s-.792.141.301 1.78c.203-.652.672-1.908-.301-1.78z"/>
  <circle fill="#FFF" cx="152.291" cy="35.453" r="4.208"/>
  <circle fill="#201600" cx="152.291" cy="37.366" r="1.521"/>
  <circle fill="#FFF" cx="152.683" cy="37.516" r=".601"/>
  <circle fill="#FFF" cx="178.79" cy="35.453" r="4.208"/>
  <circle fill="#201600" cx="178.79" cy="37.366" r="1.521"/>
  <circle fill="#FFF" cx="179.182" cy="37.516" r=".601"/>
  <path fill="#994D26" d="M152.937 21.369s.75 2.875 2.5 1.5 1-3.5 2.375-3.563 4.398.875 5.98.375 1.374-1.063 1.374-1.063l-.667-3.813s-6.938.125-7.125 0-6.25 3.563-6.25 3.563l1.813 3.001z"/>
  <path fill="#903" d="M165.166 18.619s-10.334-5.417-10.625.75-9.584.474-7.25-2.708 4.375-3.25 4.375-3.25-7.083-.333-6.25-5.333 7.374-3.25 8.396-2.167c-.146-1.75-.229-4.416 3.604-4.083s4.583 2.833 4.583 2.833.6-3.056 3.05-2.861 4.2 3.195 3.45 5.195c2.832-4.333 9.792-1.042 6.082 4.796-3.332.156-7.748.162-9.415 6.828z"/>
  <path fill="#994D26" d="M141.604 44.54s6.374 1.316 3.479 20.325-.729 31.925-.729 31.925l-10.223-3.333V70.803l7.473-26.263z"/>
  <path fill="#F93" d="M139.722 162.999s13.921-17.758 2.413-59.366c-5.575-20.163.246-36.313.246-36.313s10.125-28.813-14.256-36.412c-24.384-7.599-33.353 28.181-33.353 28.181S77 106.328 48.379 124.162c-23.664 14.744 91.343 38.837 91.343 38.837z"/>
  <path fill="#BF7326" d="M126.131 64.129c-.912 1.807-3.242 5.117-7.421 7.896-1.324-1.588-3.122-7.651-2.458-11.169 1.755-1.195 3.116-.763 5.422-.005 2.217.728 3.737 1.214 4.457 3.278z"/>
  <path fill="#BF9900" d="M123.532 57.338s10.252 3.366-4.277 13.024c-2.265-2.717-7.164-16.784 4.277-13.024z"/>
  <path fill="#FC0" d="M123.532 57.338s9.301 2.527-3.549 10.807c-2.265-2.717-6.902-14.239 3.549-10.807z"/>
  <path fill="#987315" d="M120.416 59.077s1.108.101.074 1.779c-.433-.597-.853-1.623-.074-1.779z"/>
  <path fill="#BF7326" d="M141.012 61.203c-1.19 3.624-4.597 4.883-8.401 3.634-3.804-1.25-5.893-6.582-4.703-10.206 1.19-3.625 3.393-5.136 7.197-3.887 3.803 1.249 7.096 6.834 5.907 10.459zm-37.583-11.42c-1.19 3.624.807 6.657 4.611 7.906s8.648-1.807 9.838-5.431.312-6.147-3.492-7.396c-3.804-1.25-9.767 1.297-10.957 4.921z"/>
  <path fill="#987315" d="M123.839 60.171s.708.38-.841 1.598c.011-.683-.043-2.022.841-1.598z"/>
  <circle fill="#FFF" cx="135.61" cy="59.286" r="4.208"/>
  <circle fill="#201600" cx="135.013" cy="61.105" r="1.521"/>
  <circle fill="#FFF" cx="134.593" cy="61.124" r=".601"/>
  <circle fill="#FFF" cx="110.434" cy="51.02" r="4.209"/>
  <circle fill="#201600" cx="109.837" cy="52.837" r="1.521"/>
  <circle fill="#FFF" cx="109.417" cy="52.857" r=".602"/>
  <ellipse fill="#311E26" cx="131.401" cy="178.453" rx="99.254" ry="29.178"/>
  <path fill="#FC0" d="M22.166 137.995s-16.333 2.666-19.667 15.666c3.667-2.667 14.167-5.666 18.833-5.666-2.333 5.666-8.5 14.499-8.5 17.166 3.667-3.333 15-10.5 15-10.5s-5.687 13.242-6 22c4.833-7.333 8.186-8.316 14.52-11.316-1.333 6.667-3.853 13.816-2.52 18.816 3.333-5.666 8.667-11.833 11.667-12.833.224 4.006 5.167 15.333 29.167 20s93.167 20.333 141.5-20c5 4.666 11.333 15 11.333 15s-1.333-15.334-7.333-22.334c4.666 1.334 10.499 3 18.499 2.167-2.666-4-11.833-10.833-14.166-10.833 7-.667 17.333-3 26 6-.667-5.667-6.666-17.333-26.333-15 8-2.667 20-7.668 26.333-1.334-.667-5-9.999-9.666-21.333-8.666 4.333-3 13-10.667 13-10.667l-16 2.666 5.666-11-14 4.334s-77.667-21.334-167-2.334c-10.333-1.332-12-5.332-22.667-1.332 4.667 1.666 9.333 6.5 9.333 6.5s-16.833-4.834-26.667.832c11.667-1.499 17 6.334 17 6.334s-14.666-2.666-22.333 1.667c9.834-.667 16.668 4.667 16.668 4.667z"/>
  <path fill="#603A13" d="M128.759 37.825s5.589.141 7.852-2.491c-1.438-1.082-3.362-2.549-5.404-3.299s-2.448 5.79-2.448 5.79z"/>
  <path opacity=".5" fill="#BF9900" d="M70.999 118.121s-69.047 24.502-16.793 49.373c52 24.75 88.395 17.425 88.395 17.425s114.95-19.169 69.398-59.727-141-7.071-141-7.071z"/>
  <path opacity=".13" fill="#FFF" d="M142.381 67.319s10.125-28.813-14.256-36.412c-24.384-7.599-33.353 28.181-33.353 28.181s-3.637 9.665-10.268 21.902l10.329-7.079s-1.917 8.25-1.75 9.833c1-1.083 6.917-7.583 6.917-7.583l.333 14.083 5.167-6.667.333 4.167 3.584-7.167v5.25l2.949-4.75V94.66l6.007-12.667 1.21 7.25 2.301-4.583 3.449 7.583 1.712-6.917 5.455 5.25 1.019-4 5.065 5.75v-5.917l1.164 1.164c-.327-12.031 2.633-20.254 2.633-20.254z"/>
  <path fill="#AFAFAF" d="M161.199 111.303c7.821 14.67 3.3 28.117-7.93 34.103-11.229 5.987-24.914 2.246-32.735-12.423-7.82-14.669-8.246-37.397 2.984-43.385 11.23-5.986 29.862 7.036 37.681 21.705z"/>
  <path fill="#8F7300" d="M200.666 137.086c6.333-2.642 10.157-6.113 9.859-11.188-.746-12.705-21.574-21.813-38.169-20.839-16.595.977-25.712 11.846-24.964 24.55.216 3.683 1.243 7.113 2.989 10.107a22.158 22.158 0 0 0-3.647 5.031c-5.37-4.922-13.478-7.276-23.386-5.436-4.215.782-8.54 2.288-12.601 4.299-.733-3.796-2.309-7.208-4.617-10.026 4.138-8.155 5.389-16.664 1.37-22.279-7.408-10.349-29.884-6.945-43.401 2.73-10.948 7.837-14.283 18.549-11.219 27.835-3.339 4.212-5.111 8.807-4.312 13.249 2.254 12.527 18.357 15.104 34.717 12.158.995-.179 5.448-2.923 6.38-3.166 4.088 11.232 14.833 22.833 42.097 20.508 9.823-.838 19.581-6.687 22.903-13.008 5.539 5.092 13.431 4.26 23.615 2 16.229-3.601 29.675-17.577 26.918-30-.516-2.333-2.822-4.684-4.532-6.525z"/>
  <path fill="#C9C8C8" d="M174.395 144.886c-16.597.977-26.924-8.751-27.669-21.453-.748-12.704 8.369-23.574 24.964-24.55 16.595-.975 37.423 8.134 38.169 20.839.745 12.702-18.87 24.189-35.464 25.164zm-81.061-2.739c-13.518 9.678-27.441 6.957-34.848-3.391-7.408-10.347-5.493-24.404 8.024-34.08 13.517-9.676 35.993-13.079 43.401-2.73 7.407 10.349-3.059 30.526-16.577 40.201z"/>
  <path fill="#E2E2E2" d="M120.963 107.729c16.345-3.036 27.804 5.329 30.126 17.84 2.324 12.512-5.368 24.433-21.712 27.468s-38.144-3.409-40.467-15.923c-2.323-12.51 15.709-26.35 32.053-29.385z"/>
  <path fill="#FFF" d="M173.899 171.248c-16.229 3.602-27.973-4.359-30.729-16.782-2.758-12.424 4.516-24.604 20.744-28.206s38.239 2.081 40.996 14.505c2.758 12.423-14.782 26.882-31.011 30.483zM73.587 119.432c14.859-7.456 28.189-2.603 33.896 8.771 5.708 11.374 1.628 24.963-13.23 32.417-14.857 7.455-37.59 7.318-43.297-4.059-5.706-11.373 7.773-29.675 22.631-37.129z"/>
  <path fill="#E2E2E2" d="M109.773 135.618c-.085.033-22.353 8.791-21.066 27.313a44.816 44.816 0 0 0 5.546-2.311c11.724-5.882 16.731-15.583 15.52-25.002zm45.734 34.29c11.108-25.284-8.744-33.183-8.82-33.213-3.703 5.115-4.928 11.409-3.516 17.771 1.547 6.972 5.924 12.536 12.336 15.442z"/>
  <path opacity=".27" fill="#804D1A" d="M81.248 86.769s8.814 5.475 12.814 6.1c.438-1.063.5-1.563.5-1.563s4.438 2.25 7.688 2.063c.25-1-.75-3.294-.75-3.294s2.563.331 4.813 0c-.122-.81-.438-1.643-.438-1.643l-7.688-3.563-13.684-3.879-3.255 5.779z"/>
  <path fill="#F63" d="M126.131 30.525s1.382.162 0 4.204 5.806 3.828 6.649 1.116c.438-1.409-.563-2.726-2.5-2.601 1.938-.125 3.455-1.391 3.212-3.245s-3.017-2.104-3.755-1.479c-.738-.75-5.36-3.542-5.737 1.479.27.022 2.131.526 2.131.526z"/>
  <path fill="#C63" d="M91.285 67.36s-5.447-1.931-5.734 3.505c-1.576.283-5.157 2.538-3.724 6.081-1.003 0-3.151 2.094-2.005 5.315s10.886 8.346 13.894 9.327l-1.146-3.046s3.151 3.06 8.738 3.866c-2.148-3.705-2.578-5.315-2.578-5.315s1.862 1.933 8.737 2.255c-4.154-4.832-17.646-18.381-16.182-21.988z"/>
  <path opacity=".2" fill="#FFF" d="M183.687 70.479c.486 2.527.354 5.125-.228 7.587a20.574 20.574 0 0 1-1.222 3.584 18.5 18.5 0 0 1-1.126 2.126c-.11-.63-.269-1.237-.436-1.838a43.519 43.519 0 0 0-1.014-3.008c-.368-.986-.75-1.964-1.145-2.93l-.576-1.445c-.179-.463-.383-.992-.462-1.354l-.791-3.618-.676 3.649a105.3 105.3 0 0 1-1.167 5.498 79.815 79.815 0 0 1-.698 2.681l-.046-.125a60.743 60.743 0 0 0-1.11-2.693c-.768-1.767-1.605-3.514-2.435-5.218l-1.469-3.023-.363 3.359c-.113 1.054-.35 2.242-.572 3.37-.23 1.141-.481 2.281-.748 3.416s-.551 2.264-.862 3.378l-.237.826c-.063-.168-.129-.333-.191-.501-.36-.98-.704-1.973-1.038-2.97-.671-1.992-1.298-4.01-1.925-6.016l-.926-2.965-.875 2.957a1186.1 1186.1 0 0 1-3.028 10.08 27.138 27.138 0 0 1-1.136-3.195 40.17 40.17 0 0 1-1.133-5.358l-.296-2.126-.875 1.913-1.709 3.737c-.277.626-.559 1.251-.82 1.887-.114.278-.228.555-.339.833-.517-1.623-.824-3.339-1.049-5.053a64.32 64.32 0 0 1-.466-6.397 49.993 49.993 0 0 0 .007 6.442c.155 2.146.404 4.305 1.099 6.41l.352 1.064.441-1.074c.498-1.212 1.143-2.441 1.736-3.659l.951-1.864c.181 1.216.4 2.423.704 3.622.473 1.842 1.078 3.672 2.003 5.407l.868 1.629.606-1.767c1.036-3.019 1.995-6.041 2.955-9.065.327 1.059.665 2.115 1.01 3.172.333 1.011.675 2.021 1.038 3.029.367 1.009.738 2.011 1.208 3.03l.897 1.951.89-1.938c.563-1.226.869-2.343 1.201-3.506.315-1.154.597-2.308.862-3.464.264-1.157.511-2.316.738-3.482l.094-.494c.384.794.763 1.587 1.13 2.388.395.86.773 1.724 1.121 2.589.333.848.684 1.778.794 2.508l.505 3.33 1.189-3.092c.721-1.873 1.153-3.723 1.561-5.593.21-.998.402-1.994.582-2.994l.191.439 1.248 2.855c.4.953.785 1.911 1.111 2.879.317.961.614 1.959.656 2.889l.065 1.464.825-1.151c.807-1.125 1.334-2.311 1.81-3.535.462-1.224.81-2.486 1.038-3.768.231-1.281.327-2.584.293-3.879a16.791 16.791 0 0 0-.59-3.82z"/>
</svg>
