<svg xmlns="http://www.w3.org/2000/svg" width="67.339" height="52">
  <path fill="#FFF" d="M33.678 3.518C50.023.482 61.482 8.847 63.804 21.358c2.324 12.512-5.368 24.433-21.712 27.468S3.948 45.417 1.625 32.903c-1.831-9.861 8.984-20.548 21.651-26.118 3.403-1.497 6.94-2.624 10.402-3.267z"/>
  <path fill="#AFAFAF" d="M51.824 17.464l3.51-1.397-3.793 1.252-.199.066.166.141.944.802-4.751 3.284-.477-3.429-.057-.404-.374.17-5.505 2.505-.535-4.198-.044-.345-.336.075-3.418.769-1.055-1.949-.146-.269-.241.176-2.832 2.065c-.945-2.259-1.956-4.49-2.929-6.738.887 2.375 1.732 4.766 2.656 7.125l.091.234.212-.144 2.854-1.938.977 1.91.101.198.222-.047 3.304-.704.495 4.256-5.455 1.097.378.276a310.137 310.137 0 0 0 6.086 4.295c-2.258.547-4.501 1.154-6.752 1.731l-.545.139.421.372c.994.875 2.021 1.715 3.033 2.57a187.642 187.642 0 0 0-2.129 5.309c.887-1.75 1.753-3.51 2.585-5.285l.065-.14-.12-.111c-.875-.803-1.743-1.615-2.627-2.409 2.307-.566 4.619-1.103 6.913-1.719l.69-.186-.587-.396c-2.129-1.439-4.011-2.63-6.173-4.021 1.576-.385 2.248-.391 4.279-.988l.426-.199 5.53-2.589.536 3.457.071.453.362-.27 5.166-3.843.178-.132-.171-.128-1-.749z"/>
</svg>
